<svg xmlns="http://www.w3.org/2000/svg" width="24" height="24" viewBox="0 0 24 24" fill="none">
  <defs>
    <linearGradient id="grad" x1="0%" y1="0%" x2="100%" y2="100%">
      <stop offset="0%" style="stop-color:#000000;stop-opacity:1" />
      <stop offset="100%" style="stop-color:#1E90FF;stop-opacity:1" />
    </linearGradient>
  </defs>
  <path d="M21 16V8a2 2 0 0 0-1-1.73l-7-4a2 2 0 0 0-2 0l-7 4A2 2 0 0 0 3 8v8a2 2 0 0 0 1 1.73l7 4a2 2 0 0 0 2 0l7-4A2 2 0 0 0 21 16z" stroke="url(#grad)" stroke-width="2" stroke-linecap="round" stroke-linejoin="round"/>
  <path d="m7.5 4.21 4.5 2.6 4.5-2.6" stroke="url(#grad)" stroke-width="2" stroke-linecap="round" stroke-linejoin="round"/>
  <path d="M7.5 19.79V14.6L3 12" stroke="url(#grad)" stroke-width="2" stroke-linecap="round" stroke-linejoin="round"/>
  <path d="M21 12l-4.5 2.6v5.19" stroke="url(#grad)" stroke-width="2" stroke-linecap="round" stroke-linejoin="round"/>
  <path d="M3.27 6.96 12 12.01l8.73-5.05" stroke="url(#grad)" stroke-width="2" stroke-linecap="round" stroke-linejoin="round"/>
  <path d="M12 22.08V12" stroke="url(#grad)" stroke-width="2" stroke-linecap="round" stroke-linejoin="round"/>
</svg>
